Coordinates
version=1
nRows=5
nColumns=42
inDegrees=yes

Units are S.I. units (second, meters, Newtons, ...)
If the header above contains a line with 'inDegrees', this indicates whether rotational values are in degrees (yes) or radians (no).

endheader
time	pelvis_tilt	pelvis_list	pelvis_rotation	pelvis_tx	pelvis_ty	pelvis_tz	hip_flexion_r	hip_adduction_r	hip_rotation_r	knee_angle_r	knee_adduction_r	knee_angle_r_beta	ankle_angle_r	subtalar_angle_r	mtp_angle_r	hip_flexion_l	hip_adduction_l	hip_rotation_l	knee_angle_l	knee_adduction_l	knee_angle_l_beta	ankle_angle_l	subtalar_angle_l	mtp_angle_l	lumbar_extension	lumbar_bending	lumbar_rotation	arm_flex_r	arm_add_r	arm_rot_r	elbow_flex_r	pro_sup_r	wrist_flex_r	wrist_dev_r	arm_flex_l	arm_add_l	arm_rot_l	elbow_flex_l	pro_sup_l	wrist_flex_l	wrist_dev_l
      0.50000000	      7.95551959	      5.87214283	     -4.61271481	     -1.61131677	      0.97639032	      0.34302693	    -22.18601481	     -7.25175433	    -17.38985374	     16.70353962	      1.58156340	      0.29153176	     14.46776000	      6.27656311	     -9.46980845	     10.12073849	      4.05400698	    -13.45720282	      5.80772763	     -1.06634893	      0.10136397	     -7.37559539	      9.79389739	     -9.46980845	    -18.39810315	    -10.94006199	      6.87071724	     24.04579269	    -16.32049298	     29.34306459	     39.33021717	     90.00000001	      0.00000000	      0.00000000	    -17.55699536	    -12.69807300	      6.41929941	     40.29322201	     90.00000001	      0.00000000	      0.00000000
      0.51000000	      7.73255284	      6.01437053	     -4.61046945	     -1.60237683	      0.97728357	      0.34122486	    -22.06235780	     -7.75551116	    -17.46177527	     17.49436311	      1.64984011	      0.30533424	     13.23407321	      6.27962458	     -9.45103437	      9.66064230	      4.35214455	    -13.75193710	      5.42574389	     -1.02087620	      0.09469710	     -7.62734562	      9.99637339	     -9.45103437	    -18.09326115	    -11.17236357	      6.62897746	     23.43920136	    -16.20026193	     29.36305894	     39.29792285	     90.00000001	      0.00000000	      0.00000000	    -17.26994897	    -12.81734890	      6.47991543	     40.11947186	     90.00000001	      0.00000000	      0.00000000
      0.52000000	      7.62193648	      6.24080349	     -4.57606524	     -1.59338681	      0.97848279	      0.33922202	    -21.94220774	     -8.41769645	    -17.72476848	     18.53489917	      1.74877911	      0.32349502	     11.92926690	      6.17216256	     -9.43141542	      9.07897567	      4.82405503	    -13.93441174	      5.03682503	     -1.08686052	      0.08790918	     -7.86441670	     10.28651487	     -9.43141542	    -17.93464803	    -11.48410432	      6.38094920	     22.77086934	    -16.13605497	     29.30865466	     39.26720109	     90.00000001	      0.00000000	      0.00000000	    -16.88197018	    -12.97614471	      6.58322033	     39.91665130	     90.00000001	      0.00000000	      0.00000000
      0.53000000	      7.53818914	      6.49326171	     -4.49664191	     -1.58437799	      0.97984717	      0.33709272	    -21.74837252	     -9.13815589	    -18.10863138	     19.79416134	      1.83850391	      0.34547329	     10.55658887	      6.01489280	     -9.40869738	      8.46781809	      5.35388170	    -13.99899123	      4.64494932	     -1.16175812	      0.08106966	     -7.96876723	     10.57261958	     -9.40869738	    -17.82496764	    -11.80672025	      6.10150659	     22.03867747	    -16.07742494	     29.18616052	     39.23631213	     90.00000001	      0.00000000	      0.00000000	    -16.43058843	    -13.16502392	      6.72756243	     39.73635803	     90.00000001	      0.00000000	      0.00000000
      0.54000000	      7.38552864	      6.83910145	     -4.32531049	     -1.57535405	      0.98114557	      0.33468333	    -21.33117759	    -10.02082775	    -18.75565600	     21.40701380	      1.93418621	      0.37362287	      9.31071291	      6.01142049	     -9.34823973	      7.93056683	      6.05756326	    -13.79689843	      4.24134043	     -1.33167728	      0.07402536	     -8.10944933	     10.69838892	     -9.34823973	    -17.66107896	    -12.19235145	      5.73830269	     21.21125077	    -15.97454015	     28.81637685	     39.24098019	     90.00000001	      0.00000000	      0.00000000	    -15.95860999	    -13.44483737	      7.08481647	     39.58670210	     90.00000001	      0.00000000	      0.00000000
